<mxfile host="app.diagrams.net" modified="2023-09-12T00:41:13.906Z" agent="Mozilla/5.0 (Windows NT 10.0; Win64; x64) AppleWebKit/537.36 (KHTML, like Gecko) Chrome/115.0.0.0 Safari/537.36 OPR/101.0.0.0" version="21.7.4" etag="aNPm9nmcWBdnzRc_lzHi" type="github">
  <diagram name="PÃ¡gina-1" id="HYelZOjX4ciAi_O9Yryl">
    <mxGraphModel>
      <root>
        <mxCell id="0" />
        <mxCell id="1" parent="0" />
      </root>
    </mxGraphModel>
  </diagram>
</mxfile>
